<svg id="doctor" xmlns="http://www.w3.org/2000/svg" width="45.975" height="30.914" viewBox="0 0 45.975 30.914">
  <g id="Group_135" data-name="Group 135">
    <path id="Path_440" data-name="Path 440" d="M77.989,92.13h-42A1.988,1.988,0,0,0,34,94.115v26.943a1.988,1.988,0,0,0,1.986,1.986h42a1.988,1.988,0,0,0,1.986-1.986V94.115a1.988,1.988,0,0,0-1.986-1.986Zm.4,28.929a.4.4,0,0,1-.4.4h-42a.4.4,0,0,1-.4-.4V94.115a.4.4,0,0,1,.4-.4h42a.4.4,0,0,1,.4.4Z" transform="translate(-34 -92.13)" fill="#e45055"/>
    <path id="Path_441" data-name="Path 441" d="M198.719,130.378h-1.585v-1.585a.792.792,0,0,0-.793-.793h-3.171a.792.792,0,0,0-.793.793v1.585h-1.585a.792.792,0,0,0-.793.793v3.171a.792.792,0,0,0,.793.793h1.585v1.585a.792.792,0,0,0,.793.793h3.171a.792.792,0,0,0,.793-.793v-1.585h1.585a.792.792,0,0,0,.793-.793v-3.171A.792.792,0,0,0,198.719,130.378Zm-.793,3.171h-1.585a.792.792,0,0,0-.793.793v1.585h-1.585v-1.585a.792.792,0,0,0-.793-.793h-1.585v-1.585h1.585a.792.792,0,0,0,.793-.793v-1.585h1.585v1.585a.792.792,0,0,0,.793.793h1.585Z" transform="translate(-159.086 -123.244)" fill="#e45055"/>
    <path id="Path_442" data-name="Path 442" d="M50.793,201.585H67.439a.793.793,0,0,0,0-1.585H50.793a.793.793,0,0,0,0,1.585Z" transform="translate(-46.829 -180.976)" fill="#e45055"/>
    <path id="Path_443" data-name="Path 443" d="M65.061,224H50.793a.793.793,0,0,0,0,1.585H65.061a.793.793,0,0,0,0-1.585Z" transform="translate(-46.829 -200.22)" fill="#e45055"/>
    <path id="Path_444" data-name="Path 444" d="M50.793,213.585H60.3a.793.793,0,1,0,0-1.585H50.793a.793.793,0,1,0,0,1.585Z" transform="translate(-46.829 -190.598)" fill="#e45055"/>
    <path id="Path_445" data-name="Path 445" d="M123.475,212H110.793a.793.793,0,1,0,0,1.585h12.683a.793.793,0,1,0,0-1.585Z" transform="translate(-94.939 -190.598)" fill="#e45055"/>
    <path id="Path_446" data-name="Path 446" d="M57.134,134.268A7.134,7.134,0,1,0,50,127.134,7.142,7.142,0,0,0,57.134,134.268ZM53.3,131.136a3.162,3.162,0,0,1,1.287-1.855,3.679,3.679,0,0,0,5.1,0,3.131,3.131,0,0,1,1.288,1.854,5.524,5.524,0,0,1-7.67,0Zm3.833-2.416a2.807,2.807,0,1,1,2.378-2.774A2.6,2.6,0,0,1,57.134,128.719Zm0-7.134a5.537,5.537,0,0,1,4.954,8.033,4.719,4.719,0,0,0-1.455-1.632,4.679,4.679,0,0,0,.464-2.042,3.981,3.981,0,1,0-7.927,0,4.68,4.68,0,0,0,.465,2.045,4.773,4.773,0,0,0-1.454,1.634,5.537,5.537,0,0,1,4.952-8.039Z" transform="translate(-46.829 -116.829)" fill="#e45055"/>
  </g>
</svg>
