<svg xmlns="http://www.w3.org/2000/svg" width="239.834" height="50.812" viewBox="0 0 239.834 50.812"><defs><style>.a{fill:#fff;}.a,.b{fill-rule:evenodd;}.b{fill:#7d8078;}</style></defs><path class="a" d="M239.834,55.56h0Z" transform="translate(0 -4.748)"/><g transform="translate(91.278 0)"><g transform="translate(0)"><path class="a" d="M87.151,50.174c-.989-6.652-6.4-11.754-14.41-11.971-7.878.193-14.08,5.588-14.318,13.086a13.01,13.01,0,0,0,3.261,8.445c3.334,4.189,21.472,17.006,25.475,26.272,3.995-9.266,22.114-22.083,25.448-26.272a13.009,13.009,0,0,0,3.261-8.445c-.238-7.5-6.44-12.893-14.318-13.086C93.545,38.421,88.132,43.523,87.151,50.174Z" transform="translate(-58.423 -38.203)"/><path class="b" d="M116.766,58.519a.62.62,0,0,1,.2.034c.041,1.276-1.672,1.757-2.343,2.627a3.117,3.117,0,0,1-.774.405.271.271,0,0,0-.082.2l.815.372a2.923,2.923,0,0,1-.733-.152,4.819,4.819,0,0,0-2.353.1,1.4,1.4,0,0,1-.588.186v.126l2.239.22.7.355a3.658,3.658,0,0,1,2.58.127c0,.042.155.169.072.262l-1.95.034c-.113.025-.2.059-.113.186l1.4.482a1.4,1.4,0,0,1,.588,1.343c-.588.127-1.135-.38-1.651-.768a2.62,2.62,0,0,0-1.4-1.462c-.155.5.32,1.368-.2,1.816l-.156.127a1.387,1.387,0,0,1-.351-.034c-.67-.734.547-1.445.351-2.171-.547-.608-1.681-.389-2.58-.482-.887.152-1.476.634-2.229.71-.113.151.238.126.279.253a1.178,1.178,0,0,0,.113.279c.815.228,1.1.929,1.331,1.63a1.484,1.484,0,0,1,.042.389,1.917,1.917,0,0,1-1.373-.667c-.186-.254-.113-.482-.155-.676-.031-.1-.072-.152-.238-.1-.041.1-.155.135-.2.3l-1.321.836c-.309-.228,0-.709.227-.929a7.731,7.731,0,0,1,.7-.481,1.889,1.889,0,0,0,.361-.067.542.542,0,0,0,.3-.321c0-.254-.454-.287-.774-.313a14.4,14.4,0,0,1-2.073-.228,4.99,4.99,0,0,0-3.169.448c-2.92,1.858-1.135,5.761-4.169,7.577,1.435,1.258,3.777,2.078,4.1,4.131,1.517,6.5-9.07,8.1-7.584,14.622a.735.735,0,0,1,.072.355l.164,2.011c-.051.076-.072.169-.237.135a5.749,5.749,0,0,0-1.012-.9,4.912,4.912,0,0,0-.7-1.25c-1.342-1.411-2.827-2.559-3.983-3.936a.69.69,0,0,1-.134-.186l-.34-.3c-1.765-2.458-3.446-5.718-2.581-8.928a5.191,5.191,0,0,1,1.517-2.593.4.4,0,0,0-.031-.152,13.449,13.449,0,0,0-5.748,2.01,5.857,5.857,0,0,1-1.414.929,17.528,17.528,0,0,1-6.562,1.343.332.332,0,0,1-.2-.439l2.116-1c-.237-.313.268.329-.165-.093a15.955,15.955,0,0,1-1.641.355,18.519,18.519,0,0,1-5.552-.186,5.511,5.511,0,0,1-.66-.262.334.334,0,0,1-.083-.389l4.654-.794v-.127a23.954,23.954,0,0,1-4.922-.633c-.589-.3-1.249-.515-1.754-.71-.155-.067-.083-.254-.124-.422l3.633.093c.392-.093-.113-.346-.227-.439a3.509,3.509,0,0,1-1.29-.9.385.385,0,0,1,.227-.355c2.651,1.25,6.449,1.022,9.39-.127a5.612,5.612,0,0,0,2.146-1.723,18.976,18.976,0,0,1-4.613-.583c-1.806-.828-4.344-1.022-6.336-1.436a21.765,21.765,0,0,0-2.931.262c-.072-.034-.072-.076-.072-.169a.656.656,0,0,1,.423-.287,8.129,8.129,0,0,0,5.118-2.213c2.105-2.036,4.385-3.962,7.781-4.5a12.577,12.577,0,0,1,4.107.414,16.529,16.529,0,0,1,3.044,1.343,7.958,7.958,0,0,0,6.573,1.377,6.469,6.469,0,0,0,4.726-2.652,12.634,12.634,0,0,1-2.622-.3,7.671,7.671,0,0,0-1.052.482c-.383.481.319,1.242-.383,1.723a1.387,1.387,0,0,1-.206.135c-.351-.093-.155-.515-.226-.8-.29-.313-.558.414-1.012.169l.021-.456c.093-.1.279-.1.32-.287-.475-.253-1.094-.219-1.569-.574-.578-.034-1.124.228-1.63.025a.606.606,0,0,1-.124-.118c.2-.422,1.053-.262,1.486-.262.629.135.784.448,1.217.617.113.059.145-.11.145-.169-.3-.254-.227-.735-.578-1.056,0-.389-.155-.769.124-1.022a.445.445,0,0,1,.309.1c.815.532-.289,1.275.392,1.977a1.657,1.657,0,0,0,1.331,0c.424-.287.815-.482,1.2-.7.237-.034-.228-.093.051-.169l-1.021-.954c-.114-.119-.114-.254-.2-.38.2-.219.7.059.939.127.228.152.279.194.351.355a1.45,1.45,0,0,0,.238.955,4.587,4.587,0,0,0,2.807.287,5.231,5.231,0,0,1,3.869-1.4c1.455,0,1.837,1.242,3.055,1.461.62.3.547,1.258,1.4,1.351a6.434,6.434,0,0,0,3.757-.3c.391-1.022.546-2.079,1.681-2.611.269.532-.164,1.275-.629,1.69-.309.194-.62.219-.7.574.9,0,2.393-.54,3.478-.633.505-.135.815-.389,1.217-.524l.3-.372a1.412,1.412,0,0,1-.155-1.791.48.48,0,0,1,.433.346v.862c.041.1.082.161.237.1.188-.7.436-1.537,1.519-1.731Z" transform="translate(-62.11 -49.222)"/><path class="b" d="M103.529,62.951a2.4,2.4,0,0,1,1.755,1.014l1.176.515.279.389c-.908.093-2.312.228-2.942.963a4.013,4.013,0,0,0-1.62,3.066,5.36,5.36,0,0,1-1.455,3.556,6.961,6.961,0,0,0-.63.549,2.461,2.461,0,0,1-.66-1.993.372.372,0,0,0-.237-.194.682.682,0,0,0-.465.388,3.088,3.088,0,0,0,1.517,2.948.87.87,0,0,1,.237.093c1.992.963,3.86,2.593,3.509,4.925a7.612,7.612,0,0,1-.733,2.593,1.176,1.176,0,0,1-.2.135c-2.157,2.644-6.14,4.409-6.636,7.889a8.28,8.28,0,0,0,.113,3.2c.041.076.113.076.186.194v.482c-1.992-2.467-4.014-5.88-2.879-9.174.185-.481.227-.9.382-1.284.041-.456.475-.9.155-1.25-.2-.194-.382.068-.536.195-.991,2.711-1.652,5.507-.248,8.058a7.047,7.047,0,0,1-2.466-7.965c.475-1.664,1.764-2.56,2.715-3.81.155-.093.155-.228.227-.321.041-.068.2-.093.268-.186a.222.222,0,0,0-.072-.194.747.747,0,0,0-.238-.1c-1.207.524-1.61,1.732-2.58,2.433a7.585,7.585,0,0,0-1.4,5.728,8.762,8.762,0,0,1-1.063-2.306,5.387,5.387,0,0,1,1.217-4.181c1.012-1.377,2.849-2.078,3.664-3.488-.021-.1-.113-.127-.3-.195a39.471,39.471,0,0,0-3.251,2.585A7,7,0,0,0,88.8,80.133l.227-1.25c.97-2.559,4.252-3.488,4.541-6.428a.372.372,0,0,0-.124-.287.533.533,0,0,0-.464-.068c-.516,1.25-.856,2.661-2.229,3.556l-.7.254a13.493,13.493,0,0,0-6.1,2.044c-1.559,1.386-3.839,1.985-6.223,2.315A5.209,5.209,0,0,0,79.454,78.5c-2.58.482-5.521,1.149-8.286.575.588-.287,2.229-.093,3.055-.575a14.179,14.179,0,0,0,1.517-.574c.072-.161.351-.329.237-.583-1.568-.152-3.447.067-5.046-.355-.619.034-.98-.279-1.517-.372h3.4a.7.7,0,0,0,.351-.422l-1.166-.507a15.765,15.765,0,0,0,6.4-.422c2.24-.574,3.261-2.111,4.819-3.294a6.217,6.217,0,0,1,1.445-.862.414.414,0,0,0,.072-.481.353.353,0,0,0-.186-.093,7.159,7.159,0,0,1-5.985,1.334,10.828,10.828,0,0,0,2.116-.633,21.475,21.475,0,0,0,1.992-1.123c.113-.059.164-.186.226-.355a.316.316,0,0,0-.226-.254c-1.806,1.09-4.025,2.272-6.574,1.664l4.458-1.816a.361.361,0,0,0,.124-.169.4.4,0,0,0-.124-.287c-2.384.456-4.169,2.34-7.068,1.639L76.8,68.806c.186.034.279-.1.464-.194l.826-.186a.786.786,0,0,0,.114-.194.279.279,0,0,0-.114-.194c-.238-.194-.629,0-.939,0-1.878.768-3.446,2.467-6.1,2.111l1.4-.735c1.723-1.469,3.488-3.353,5.748-4.451,3.519-1.538,7.5-.347,9.968,1.25a8.772,8.772,0,0,0,3.044,1.25l-1.517.608c-.124.059-.155.194-.237.355a.336.336,0,0,0,.237.245l.816-.481A21.406,21.406,0,0,1,94,67.4,7.38,7.38,0,0,0,99.6,64.777a4.679,4.679,0,0,1,2.879-1.732,3.829,3.829,0,0,0,1.053-.094Z" transform="translate(-64.384 -51.626)"/></g><path class="b" d="M105.149,65.168l.63.093a.5.5,0,0,0,.072.194c0,.059-.031.118-.124.185-.113.1-.382.059-.578.1-.268-.042-.268-.355-.155-.54A.292.292,0,0,0,105.149,65.168ZM87.566,76.707c8.649,0,15.7,1.966,15.7,4.376s-7.054,4.376-15.7,4.376-15.7-1.965-15.7-4.376S78.918,76.707,87.566,76.707Z" transform="translate(-65.713 -52.828)"/></g><path class="a" d="M47.049,100.329a4.242,4.242,0,0,0-.7-2.585,9.6,9.6,0,0,0-1.523-1.63c-.143-.123-.278-.238-.411-.345s-.272-.214-.411-.318a6.169,6.169,0,0,1-.955-.955A2.148,2.148,0,0,1,42.6,93.3v-.158a4.266,4.266,0,0,1,.052-.636,3.366,3.366,0,0,1,.186-.689,3.818,3.818,0,0,1,.6-.928,3.081,3.081,0,0,1,1.074-.769q-.186.5-.3.941a3.11,3.11,0,0,0-.119.809,1.9,1.9,0,0,0,.252.981,2.363,2.363,0,0,0,.809.769A13.634,13.634,0,0,1,47.169,95.2a8.7,8.7,0,0,1,1.312,1.577,6.352,6.352,0,0,1,.967,2.677,25.855,25.855,0,0,1,.146,2.783,7.455,7.455,0,0,1-.411,2.558,4.706,4.706,0,0,1-1.02,1.736,4.471,4.471,0,0,1-1.166.822,5.328,5.328,0,0,1-1.405.477,3.446,3.446,0,0,1-.556.106,4.833,4.833,0,0,1-.53.027,4.261,4.261,0,0,1-.556-.04q-.293-.039-.583-.092a6.77,6.77,0,0,1-1.418-.531,4.333,4.333,0,0,1-1.1-.769q-.109-.11-.213-.226t-.213-.226a4.129,4.129,0,0,1-.782-1.3,5.733,5.733,0,0,1-.252-1.907,3.664,3.664,0,0,1,.053-.638,2.9,2.9,0,0,1,.543-1.312,1.522,1.522,0,0,1,1.312-.6,1.211,1.211,0,0,1,1.007.371,1.343,1.343,0,0,1,.292.849v.186a2.188,2.188,0,0,1-.225.7,1.084,1.084,0,0,1-.411.465v2.518a1.555,1.555,0,0,0,.756,1.4,3.411,3.411,0,0,0,1.63.531h.159a3.186,3.186,0,0,0,1.763-.5,1.6,1.6,0,0,0,.781-1.431v-5.09h0Zm15.534,2.519a6.18,6.18,0,0,1-.372,2.253,4.807,4.807,0,0,1-1.006,1.617,3.819,3.819,0,0,1-1.644.955,7.237,7.237,0,0,1-2.069.292,7.753,7.753,0,0,1-2.28-.332,4.161,4.161,0,0,1-1.7-.915,4.652,4.652,0,0,1-.967-1.523,4.8,4.8,0,0,1-.3-1.71,3.2,3.2,0,0,1,.345-1.351,3.484,3.484,0,0,1,1.007-1.246,2.827,2.827,0,0,1,1.829-.557.735.735,0,0,0-.12.08.575.575,0,0,0-.119.132,1.917,1.917,0,0,0-.253.41,1.379,1.379,0,0,0-.12.6v3.9a1.537,1.537,0,0,0,.8,1.4,3.382,3.382,0,0,0,1.775.477,3.537,3.537,0,0,0,1.79-.463,1.532,1.532,0,0,0,.808-1.419V99.031a1.121,1.121,0,0,0-.265-.822,1.478,1.478,0,0,0-.584-.371q-.125-.025-.252-.04a1.946,1.946,0,0,0-.225-.013h-1.3v-.663h1.3a2.193,2.193,0,0,0,.225-.013c.079-.009.163-.023.252-.04a1.048,1.048,0,0,0,.584-.331,1.4,1.4,0,0,0,.265-.968V92.7a1.649,1.649,0,0,0-.7-1.444,2.772,2.772,0,0,0-1.523-.517h-.081a2.7,2.7,0,0,0-1.551.477,1.618,1.618,0,0,0-.7,1.432v1.3a1.424,1.424,0,0,1,.5.425,1.041,1.041,0,0,1,.159.424.74.74,0,0,1-.253.556,1.981,1.981,0,0,1-.544.372c-.088.036-.177.066-.265.092a.831.831,0,0,1-.238.04h-.344a1.288,1.288,0,0,1-.265-.027,1.538,1.538,0,0,1-.253-.092q-.2-.091-.411-.172a.758.758,0,0,1-.332-.318,1.622,1.622,0,0,1-.171-.45,3.271,3.271,0,0,1-.132-.849,3.47,3.47,0,0,1,1.26-2.835,4.9,4.9,0,0,1,3.22-1.034,6.184,6.184,0,0,1,3.884,1.019,3.437,3.437,0,0,1,1.285,2.85,4.088,4.088,0,0,1-.622,2.347,2.838,2.838,0,0,1-1.948,1.154,3.344,3.344,0,0,1,1.723.966,3.118,3.118,0,0,1,.848,1.578,1.7,1.7,0,0,1,.053.424v2.437h0Zm13.2-.027a6.569,6.569,0,0,1-.372,2.28,4.2,4.2,0,0,1-1.007,1.617,3.812,3.812,0,0,1-1.684.955,7.649,7.649,0,0,1-2.108.292,7.978,7.978,0,0,1-2.32-.332,4.184,4.184,0,0,1-1.71-.915,3.819,3.819,0,0,1-1.034-1.511,5.124,5.124,0,0,1-.292-1.724,2.527,2.527,0,0,1,.092-.622,4.508,4.508,0,0,1,.278-.756,3.526,3.526,0,0,1,1.02-1.22,2.926,2.926,0,0,1,1.868-.557.161.161,0,0,1-.067.04.7.7,0,0,0-.092.04,1.542,1.542,0,0,0-.345.464,1.559,1.559,0,0,0-.159.729v3.844a1.555,1.555,0,0,0,.822,1.432,3.523,3.523,0,0,0,1.8.477,3.577,3.577,0,0,0,1.829-.477,1.555,1.555,0,0,0,.821-1.432V92.7a1.638,1.638,0,0,0-.716-1.444,2.707,2.707,0,0,0-1.563-.491,2.868,2.868,0,0,0-1.6.476,1.622,1.622,0,0,0-.728,1.458V93.94c.071.053.137.1.2.146a1.381,1.381,0,0,1,.171.146,1.411,1.411,0,0,1,.2.3.674.674,0,0,1,.066.278.7.7,0,0,1-.226.571,1.852,1.852,0,0,1-.543.384q-.145.049-.293.093a.831.831,0,0,1-.238.04h-.372a.718.718,0,0,1-.265-.053,1.532,1.532,0,0,1-.252-.092l-.385-.172a.791.791,0,0,1-.371-.332A2.419,2.419,0,0,1,66,94.789a3.141,3.141,0,0,1-.093-.571l-.013-.278a3.423,3.423,0,0,1,1.286-2.8,5.057,5.057,0,0,1,3.3-1.047,6.263,6.263,0,0,1,3.751,1.113q1.551,1.113,1.55,4.029v7.583h0Zm3.923-3.341a4.577,4.577,0,0,1,.717-.689,6.133,6.133,0,0,1,1.325-.73,4.585,4.585,0,0,1,1.776-.331,7.884,7.884,0,0,1,2.241.252,3.143,3.143,0,0,1,1.311.756,2.762,2.762,0,0,1,1.325-.756,8.738,8.738,0,0,1,2.332-.252,7.865,7.865,0,0,1,1.776.292,4.034,4.034,0,0,1,.716.278,2.3,2.3,0,0,1,.61.437c.053.053.106.107.159.158a1.2,1.2,0,0,1,.132.159,3.527,3.527,0,0,1,.769,1.511,11.187,11.187,0,0,1,.186,2.333,5.349,5.349,0,0,1-1.166,3.578,3.621,3.621,0,0,1-2.545,1.458h-.159q.451-.317.717-.531a2.646,2.646,0,0,0,.3-.556,3.891,3.891,0,0,0,.226-.716c.017-.123.035-.242.053-.358a2.189,2.189,0,0,0,.026-.331v-5.116a1.747,1.747,0,0,0-.7-1.379,2.412,2.412,0,0,0-1.578-.582,2.754,2.754,0,0,0-1.55.463,1.608,1.608,0,0,0-.7,1.445v3.844H86.071v-3.844a1.213,1.213,0,0,0-.186-.663,4.24,4.24,0,0,0-.424-.556A.474.474,0,0,0,85.394,99a.2.2,0,0,1-.066-.079,4.59,4.59,0,0,0-.663-.318,3.272,3.272,0,0,0-.848-.213.285.285,0,0,0-.132-.026h-.159a2.932,2.932,0,0,0-1.007.172,3.078,3.078,0,0,0-.769.384.2.2,0,0,1-.066.079.461.461,0,0,0-.066.053,2,2,0,0,0-.332.451,4.512,4.512,0,0,0-.252.531,1.514,1.514,0,0,0-.053.4v3.685a3.565,3.565,0,0,0,.067.861.816.816,0,0,0,.2.358l.053.053a2.189,2.189,0,0,1,.252.013,1.422,1.422,0,0,1,.278.066,1.666,1.666,0,0,1,.729.425,1.119,1.119,0,0,1,.332.847.955.955,0,0,1-.332.8,1.676,1.676,0,0,1-.729.344c-.107.018-.2.032-.278.04a2.434,2.434,0,0,1-.252.013h-.107a.24.24,0,0,1-.107-.026,1.876,1.876,0,0,1-.782-.3,4.132,4.132,0,0,1-.65-.517q-.071-.095-.146-.186a1.948,1.948,0,0,1-.119-.159.713.713,0,0,0-.066-.107.554.554,0,0,1-.067-.106,4.451,4.451,0,0,1-.583-1.18,8.616,8.616,0,0,1-.238-2.451v-1.3q0-.77.053-1.433a6.473,6.473,0,0,1,.238-1.3,6.3,6.3,0,0,1,.371-1.02,7.978,7.978,0,0,1,.609-1.074,1.877,1.877,0,0,0,.133-.2.833.833,0,0,1,.132-.171,3.712,3.712,0,0,1,.225-.3,2.1,2.1,0,0,1,.278-.278,4.987,4.987,0,0,1,1.02-.675q.676-.357,2.029-.915l3.87-1.59q.61-.24,1.1-.412c.327-.115.623-.216.888-.3.123-.052.247-.1.371-.146a8.118,8.118,0,0,0,1.443-.7,11.439,11.439,0,0,0,1.339-.981,8.242,8.242,0,0,1-1.616,3,7.374,7.374,0,0,1-1.883,1.484,7.642,7.642,0,0,1-.835.358q-.4.143-.809.278l-3.845,1.272c-.282.088-.548.178-.795.266s-.477.177-.689.266a5.829,5.829,0,0,0-1.817,1.046,1.817,1.817,0,0,0-.541,1.422Zm27.358-1.8a2.433,2.433,0,0,0-.6.8,2.374,2.374,0,0,0-.2.768,2.157,2.157,0,0,0,.319,1.1c.21.362.441.729.688,1.1.107.142.213.287.319.437a5.335,5.335,0,0,1,.293.464,2.9,2.9,0,0,1,.291.6,1.9,1.9,0,0,1,.107.622,6.545,6.545,0,0,1-.132,1.538,2.456,2.456,0,0,1-.477.928,3.883,3.883,0,0,1-.265.291l-.345.345a3.625,3.625,0,0,1-1.313.822,7.174,7.174,0,0,1-1.6.4,9.369,9.369,0,0,1-.955.053,8.435,8.435,0,0,1-.926-.053,7.1,7.1,0,0,1-1.6-.4,3.625,3.625,0,0,1-1.313-.822,3.585,3.585,0,0,1-.794-1.245,6.513,6.513,0,0,1-.4-1.512,4.115,4.115,0,0,1-.067-.556q-.014-.265-.013-.531V90.945l-1.3.318v-.476l2.254-.663c.141-.036.265-.063.371-.079a1.7,1.7,0,0,1,.291-.027.65.65,0,0,1,.7.358,2.594,2.594,0,0,1,.172,1.048v14.023a1.461,1.461,0,0,0,.716,1.339,3.657,3.657,0,0,0,1.592.517h.316a2.951,2.951,0,0,0,.385-.027l.385-.053a4.086,4.086,0,0,0,1.564-.781,1.744,1.744,0,0,0,.713-1.42,2.2,2.2,0,0,0-.118-.7,2.768,2.768,0,0,0-.411-.756,8.092,8.092,0,0,1-.57-.94,6.3,6.3,0,0,1-.411-.995,5.362,5.362,0,0,1-.2-.782,4.447,4.447,0,0,1-.066-.756,2.284,2.284,0,0,1,2.6-2.413Zm7.053,10.286a2.286,2.286,0,0,1-1.963-.941,5.665,5.665,0,0,1-.955-2.08,6.762,6.762,0,0,1-.213-1.141c-.034-.371-.052-.7-.052-.98V94.685a4.641,4.641,0,0,1,.08-.822,4.514,4.514,0,0,1,1.8-2.89,5.038,5.038,0,0,1,3.234-.9,4.876,4.876,0,0,1,3.18.9,5.01,5.01,0,0,1,1.512,1.962,4.561,4.561,0,0,1,.319,1.073,6.174,6.174,0,0,1,.078.916l-.027,7.873c0,.282-.014.6-.04.966a6.819,6.819,0,0,1-.172,1.1A5.051,5.051,0,0,1,119.831,107a3.152,3.152,0,0,1-2.558.967c-.07,0-.032-.059.118-.172a3.157,3.157,0,0,0,.517-.543,2.863,2.863,0,0,0,.477-.769,2.808,2.808,0,0,0,.213-1.14V92.616a1.613,1.613,0,0,0-.81-1.472A3.378,3.378,0,0,0,116,90.654a3.266,3.266,0,0,0-1.736.477,1.57,1.57,0,0,0-.782,1.432v11.716a3.135,3.135,0,0,0,.08.769q.079.319.557.318a.959.959,0,0,1,.834.385,1.551,1.551,0,0,1,.3.835v.079a1.532,1.532,0,0,1-.278.9.977.977,0,0,1-.86.4Z" transform="translate(-34.379 -78.805)"/><path class="a" d="M19.931,125.907H13.587l-1.11,2.586a4.015,4.015,0,0,0-.413,1.428.834.834,0,0,0,.355.656,3.1,3.1,0,0,0,1.543.371v.447H8.8v-.447a2.783,2.783,0,0,0,1.328-.474,7.307,7.307,0,0,0,1.366-2.355l5.766-13.486h.421l5.706,13.63a6.161,6.161,0,0,0,1.249,2.132,2.572,2.572,0,0,0,1.568.552v.447H19.737v-.447a2.424,2.424,0,0,0,1.324-.33.829.829,0,0,0,.346-.675,5.032,5.032,0,0,0-.487-1.68l-.99-2.355Zm-.339-.9-2.78-6.62-2.851,6.62ZM40.866,115v.45a2.675,2.675,0,0,0-1.32.552,5.069,5.069,0,0,0-1.134,1.815l-5.717,13.948h-.446l-6.138-14.13a7.6,7.6,0,0,0-.668-1.328,2.022,2.022,0,0,0-.743-.585,3.33,3.33,0,0,0-1.188-.272V115h6.694v.45a3.043,3.043,0,0,0-1.476.384.89.89,0,0,0-.339.712,5.447,5.447,0,0,0,.556,1.885l4.17,9.608,3.866-9.484a6.383,6.383,0,0,0,.569-1.946.915.915,0,0,0-.351-.672,2.309,2.309,0,0,0-1.183-.45q-.1-.02-.206-.036V115h5.054Zm5.474.894v6.478h3.6a2.947,2.947,0,0,0,1.874-.421,2.723,2.723,0,0,0,.7-1.96h.446V125.7h-.446a6.325,6.325,0,0,0-.338-1.535,1.522,1.522,0,0,0-.715-.664,3.654,3.654,0,0,0-1.522-.242h-3.6v5.4a5.207,5.207,0,0,0,.094,1.324.783.783,0,0,0,.339.375,2.1,2.1,0,0,0,.92.137h2.78a7.461,7.461,0,0,0,2.017-.193,2.984,2.984,0,0,0,1.209-.76,9.347,9.347,0,0,0,1.535-2.26h.482L54.306,131.4H41.674v-.447h.581a2.284,2.284,0,0,0,1.1-.28,1.018,1.018,0,0,0,.529-.577,5.861,5.861,0,0,0,.136-1.584V117.862a3.533,3.533,0,0,0-.313-1.923,1.868,1.868,0,0,0-1.449-.483h-.581v-.45H54.305l.182,3.589h-.474a5.637,5.637,0,0,0-.561-1.775,1.931,1.931,0,0,0-.912-.738,5.517,5.517,0,0,0-1.7-.183h-4.5v0Zm26.673,15.5H68.636l-5.549-7.66c-.409.012-.743.021-1,.021-.1,0-.215,0-.339,0s-.243-.009-.376-.017v4.76a3.378,3.378,0,0,0,.339,1.923,1.725,1.725,0,0,0,1.378.532h.644v.447H56.709v-.447h.616a1.649,1.649,0,0,0,1.484-.675,3.824,3.824,0,0,0,.256-1.778V117.9a3.352,3.352,0,0,0-.338-1.918,1.774,1.774,0,0,0-1.4-.532h-.616v-.45h5.97a14.108,14.108,0,0,1,3.85.383,4.406,4.406,0,0,1,2.1,1.4,3.671,3.671,0,0,1,.862,2.438,3.823,3.823,0,0,1-.986,2.624,5.562,5.562,0,0,1-3.049,1.568l3.383,4.7a8.419,8.419,0,0,0,1.993,2.154,5.107,5.107,0,0,0,2.177.675v.445h0ZM61.371,122.97c.157,0,.288,0,.4,0s.206.008.276.008a5.326,5.326,0,0,0,3.535-1.014,3.242,3.242,0,0,0,1.193-2.587,3.378,3.378,0,0,0-.961-2.5,3.439,3.439,0,0,0-2.545-.962,10.732,10.732,0,0,0-1.9.231v6.815Zm22.772-8.338V120.3H83.7a7.19,7.19,0,0,0-.779-2.6,4.034,4.034,0,0,0-1.6-1.534,4.409,4.409,0,0,0-2.15-.569,2.932,2.932,0,0,0-2.08.766,2.332,2.332,0,0,0-.82,1.745,2.06,2.06,0,0,0,.519,1.365,13.266,13.266,0,0,0,3.564,2.418,23.724,23.724,0,0,1,3.135,1.894,4.6,4.6,0,0,1,1.3,1.55,4.117,4.117,0,0,1,.454,1.874,4.251,4.251,0,0,1-1.444,3.209,5.234,5.234,0,0,1-3.717,1.349,7.648,7.648,0,0,1-1.345-.112,13.036,13.036,0,0,1-1.551-.436,6.883,6.883,0,0,0-1.493-.385.649.649,0,0,0-.479.182,1.47,1.47,0,0,0-.26.751H74.5v-5.62h.446a7.961,7.961,0,0,0,.85,2.64,4.086,4.086,0,0,0,1.625,1.456,5.06,5.06,0,0,0,2.4.577,3.42,3.42,0,0,0,2.389-.8,2.479,2.479,0,0,0,.875-1.885,2.579,2.579,0,0,0-.33-1.221,3.664,3.664,0,0,0-1.036-1.148,29.941,29.941,0,0,0-2.575-1.542,25,25,0,0,1-2.99-1.878,5.17,5.17,0,0,1-1.349-1.546,3.86,3.86,0,0,1-.458-1.865,4.02,4.02,0,0,1,1.353-3.036,4.824,4.824,0,0,1,3.444-1.275,6.879,6.879,0,0,1,2.768.64,2.831,2.831,0,0,0,.953.3.723.723,0,0,0,.515-.187,1.538,1.538,0,0,0,.321-.755h.449ZM94.2,130.947v.447H87.176v-.447h.582a1.744,1.744,0,0,0,1.473-.593,3.67,3.67,0,0,0,.293-1.86V117.9a5.484,5.484,0,0,0-.156-1.642,1.108,1.108,0,0,0-.495-.52,2.3,2.3,0,0,0-1.114-.287h-.582V115H94.2v.45h-.593a1.737,1.737,0,0,0-1.461.589,3.537,3.537,0,0,0-.3,1.86v10.589A5.446,5.446,0,0,0,92,130.135a1.093,1.093,0,0,0,.507.519,2.22,2.22,0,0,0,1.1.293H94.2Z" transform="translate(140.354 -104.842)"/></svg>